<?xml version="1.0" encoding="UTF-8" standalone="no"?>
<!-- Uploaded to: SVG Repo, www.svgrepo.com, Generator: SVG Repo Mixer Tools -->

<svg
   width="800px"
   height="800px"
   viewBox="0 0 48 48"
   id="b"
   version="1.1"
   sodipodi:docname="6dexcom-icon.svg"
   inkscape:version="1.2.2 (b0a8486541, 2022-12-01)"
   xmlns:inkscape="http://www.inkscape.org/namespaces/inkscape"
   xmlns:sodipodi="http://sodipodi.sourceforge.net/DTD/sodipodi-0.dtd"
   xmlns="http://www.w3.org/2000/svg"
   xmlns:svg="http://www.w3.org/2000/svg">
  <sodipodi:namedview
     id="namedview11"
     pagecolor="#ffffff"
     bordercolor="#000000"
     borderopacity="0.25"
     inkscape:showpageshadow="2"
     inkscape:pageopacity="0.0"
     inkscape:pagecheckerboard="0"
     inkscape:deskcolor="#d1d1d1"
     showgrid="false"
     inkscape:zoom="0.5"
     inkscape:cx="1039"
     inkscape:cy="284"
     inkscape:window-width="1920"
     inkscape:window-height="975"
     inkscape:window-x="0"
     inkscape:window-y="0"
     inkscape:window-maximized="1"
     inkscape:current-layer="b" />
  <defs
     id="defs4">
    <style
       id="style2">.c{fill:none;stroke:#000000;stroke-linecap:round;stroke-linejoin:round;}</style>
  </defs>
  <path
     class="c"
     d="m24,4.5C13.2486,4.5,4.5,13.2486,4.5,24s8.7486,19.5,19.5,19.5,19.5-8.7486,19.5-19.5V4.5h-19.5Z"
     id="path6" />
  <circle
     class="c"
     cx="24"
     cy="24"
     r="13.7027"
     id="circle8" />
  <path
     style="fill:#54a116;stroke-width:1;fill-opacity:1"
     d="M 346.92059,710.47159 C 263.90927,694.61298 187.00462,645.38417 142.22142,579.43797 17.659434,396.01232 108.18489,154.02458 323.72881,94.242252 c 26.17829,-7.260695 33.44408,-7.562312 209.53512,-8.6982 l 182.41648,-1.17669 -1.22834,182.392588 C 713.26858,442.49356 712.95014,450.14261 705.73,476.27119 685.57237,549.21831 637.73088,618.19261 580.18688,657.27 c -29.70922,20.17515 -72.0519,39.73498 -103.91569,48.00295 -34.97044,9.07403 -96.18664,11.53437 -129.3506,5.19864 z m 111.98368,-79.85627 c 83.62,-21.3864 150.32465,-88.09105 171.71105,-171.71105 8.92129,-34.88196 8.92129,-82.92658 0,-117.80853 -16.7721,-65.57834 -62.15854,-122.58047 -121.08213,-152.07062 -42.21261,-21.1266 -72.71794,-27.57562 -120.88104,-25.55499 -63.4088,2.66024 -112.24424,23.99579 -156.71524,68.46678 -44.47099,44.471 -65.80654,93.30644 -68.46678,156.71524 -2.02063,48.1631 4.42839,78.66843 25.55499,120.88104 29.18565,58.31518 86.12822,103.99593 150.73594,120.9241 33.89609,8.88129 84.77179,8.94874 119.14321,0.15796 z"
     id="path186"
     transform="scale(0.06)" />
  <path
     style="fill:#ffffff;stroke-width:1"
     d="M 380,617.90702 C 275.80108,608.5112 189.89646,521.8787 182.2684,418.5 c -3.73154,-50.57148 7.72509,-96.33051 34.34152,-137.16371 78.08784,-119.79733 245.71838,-134.42933 343.4285,-29.97692 58.553,62.59336 74.7796,154.73591 41.25,234.23769 C 571.90838,555.2598 499.14076,610.10334 426.93582,617.0032 403.00494,619.29002 396.6867,619.41168 380,617.90702 Z"
     id="path1291"
     transform="scale(0.06)" />
</svg>
