<?xml version="1.0" encoding="utf-8"?>
<!-- Generator: Adobe Illustrator 23.0.4, SVG Export Plug-In . SVG Version: 6.00 Build 0)  -->
<svg version="1.1" id="Layer_1" xmlns="http://www.w3.org/2000/svg" xmlns:xlink="http://www.w3.org/1999/xlink" x="0px" y="0px"
	 viewBox="0 0 1097 1097" style="enable-background:new 0 0 1097 1097;" xml:space="preserve">
<style type="text/css">
	.st0{fill:#60A945;}
	.st1{fill:#38783A;}
</style>
<g>
	<path class="st0" d="M166.5,167.8c105-105,231.7-157.5,380-157.5s275,52.5,380,157.5c105,105,157.5,231.7,157.5,380
		s-52.5,275.1-157.5,380c-105,105-231.7,157.5-380,157.5s-275.1-52.5-380-157.5C61.5,822.9,9,696.3,9,547.9S61.5,272.8,166.5,167.8z
		 M190.6,903.8c98.7,98.7,217.3,148,355.9,148c138.6,0,257.2-49.3,355.9-148c98.7-98.7,148-217.3,148-355.9
		c0-138.6-49.3-257.2-148-355.9S685.1,44,546.5,44c-138.6,0-257.2,49.3-355.9,148s-148,217.3-148,355.9
		C42.6,686.5,91.9,805.1,190.6,903.8z"/>
</g>
<g>
	<path class="st0" d="M833.5,455.3c-3.6-6.5-16.9-22.8-21.8-28.7s-21.8-17.3-34.2-24.4c-12.4-7.2-34.2-16-43-20.2
		c-8.8-4.2-42-15.6-51.5-16.9c-9.4-1.3-42.7-2.5-42.7-2.5l-1.6,2.8h-15.3v-2.8c0,0-12.1,0-20.5,0c-6,0-72.1,5.8-110.9,9.4
		c-15.7,1.5-26.9,2.6-27.7,2.8c-2.9,0.7-2.9,2.7-3.9,3.7c-1,1-3.9,4.4-7.6,5.6c-3.7,1.2-5.6,1.2-9.5-0.5c-3.9-1.7-4.4-3.9-7.6-5.1
		c-3.2-1.2-5.6,0.2-9.8,0c-4.2-0.2-7.8,2.9-11.5,5.4c-3.7,2.4,0.2,3.7-5.9,6.4c-6.1,2.7-5.9,1.7-9.5,0.5c-3.7-1.2-4.6-3.2-7.6-4.6
		c-2.9-1.5-5.6-1.7-9.5-2c-3.9-0.2-8.8,1.5-11,2.7c-2.2,1.2-3.2,3.7-5.1,5.1c-2,1.5-4.4,3.7-6.8,3.9c-2.4,0.2-6.6-0.2-9.5-1.2
		c-2.9-1-5.1-2.9-6.8-4.4c-1.7-1.5-7.1-1-10-0.7c-2.9,0.2-6.4,2.4-8.1,3.4c-1.7,1-3.4,5.1-4.2,6.4c-0.7,1.2-4.6,3.7-8.6,4.6
		c-3.9,1-9.5-1.2-11.5-2.7c-2-1.5-4.4-2.2-6.8-2.4c-2.4-0.2-21.7,6.1-29.1,8.8c-7.3,2.7-23.5,13.2-28.8,17.6
		c-5.4,4.4-17.8,26.6-17.8,26.6l2,6.4c0,0-2.9,15.4-5.1,28.1c-2.2,12.7-2,48.4-2,62.3c0,13.9,7.6,52.8,7.6,52.8l-2.4,2.4
		c3.9,13.9,19.3,27.1,20.8,28.8c1.5,1.7,14.7,11.7,20.3,13.7s26.1,9.3,29.1,10c2.9,0.7,9,0.5,10.3-0.5c1.2-1,7.8-3.2,10.7-3.9
		c2.9-0.7,8.6,2.7,10.5,3.4c2,0.7,5.6,7.3,7.6,8.1s7.1,1.7,11.7,2s3.9-0.2,5.1-1c1.2-0.7,5.9-4.4,10.3-4.9s13.9,4.6,15.6,5.6
		c1.7,1,5.1,5.4,6.8,5.9c1.7,0.5,9.8,0.7,12.2,0.2s5.6-4.9,7.6-6.4c2-1.5,13.2-0.7,14.9,0c1.7,0.7,1,5.6,7.1,8.8
		c6.1,3.2,18.6,2.9,18.6,2.9s8.3-4.2,13.7-4.6c5.4-0.5,13.7,7.1,13.7,7.1s77.9,7.6,84.2,7.8s76.5,3.8,76.5,3.8l0.3-2.4h11.4l3.6,1.6
		c0,0,15.3,1.8,32.2,0c16.9-1.8,30.6-6.2,30.6-6.2c71-23.5,101-49.8,101-49.8l1-2.9c0,0,17.6-17.9,25.1-30
		c7.5-12.1,18.3-37.8,18.3-73.8C848.5,491.1,837,461.8,833.5,455.3z M556.3,596.3c-71.8-0.2-71.5-69.7-71.5-69.7
		c0.1-4.4,1.4-35.3,27.1-55.1c16.6-12.7,34.4-14,41.1-14.1c0,0,36.6-4.2,60.3,24.8l-17.6,17.8c-2.5-2.8-16.4-17.6-38.3-17.8
		c-4.4,0-18.8,0-31.4,10.8c-2.2,1.9-15.3,13.5-15.8,32.9c-0.5,20.3,13.3,32.9,16,35.2c12.8,11.2,33.4,16.5,50.2,7.7
		c10.5-5.5,15.7-14.4,17.9-18.8c-12.7,0-25.4,0-38.1,0l0.2-23.3h66.6C622.9,526.6,628.1,596.5,556.3,596.3z M714.2,566.5
		c-0.7,2.5-5.6,18.6-22.3,26.4c-15.5,7.3-29.8,2.2-33.2,0.8c-2.9-1.1-13.6-5.5-20.5-16.9c-11.2-18.6-2.1-39-1.2-40.9
		c13.3-26.2,26.6-52.5,40-78.7l21.2,11c-7.4,14.8-14.9,29.5-22.3,44.3c4.1,0.3,16,1.6,26.2,10.9C713.7,534,718.7,551,714.2,566.5z"
		/>
	<ellipse class="st0" cx="674" cy="554.3" rx="16.8" ry="18"/>
</g>
<path class="st1" d="M647,547.9"/>
</svg>
